<svg id="svg" version="1.1" xmlns="http://www.w3.org/2000/svg" xmlns:xlink="http://www.w3.org/1999/xlink" width="400" height="400" viewBox="0, 0, 400,400"><g id="svgg"><path id="path1" d="M188.000 2.425 C 177.584 3.071,165.164 4.888,156.800 6.989 C 155.370 7.348,153.210 7.889,152.000 8.192 C 150.790 8.494,148.810 9.012,147.600 9.341 C 146.390 9.671,144.590 10.150,143.600 10.405 C 142.610 10.660,141.440 11.004,141.000 11.170 C 140.560 11.336,138.940 11.878,137.400 12.374 C 135.860 12.871,134.033 13.529,133.340 13.838 C 132.646 14.147,131.879 14.400,131.634 14.400 C 131.389 14.400,130.877 14.575,130.495 14.788 C 130.113 15.001,128.180 15.818,126.200 16.602 C 122.258 18.163,122.538 18.042,117.400 20.418 C 103.180 26.995,86.414 37.339,76.800 45.466 C 76.250 45.931,74.090 47.724,72.000 49.450 C 56.232 62.473,37.921 84.463,28.406 101.800 C 27.802 102.900,26.897 104.520,26.394 105.400 C 24.509 108.698,19.612 118.743,18.008 122.600 C 17.094 124.800,16.088 127.167,15.773 127.860 C 15.458 128.554,15.200 129.398,15.200 129.737 C 15.200 130.076,15.020 130.464,14.800 130.600 C 14.580 130.736,14.400 131.124,14.400 131.463 C 14.400 131.802,14.152 132.646,13.849 133.340 C 13.101 135.048,12.241 137.609,11.207 141.200 C 10.732 142.850,10.192 144.560,10.006 145.000 C 9.676 145.781,9.371 146.898,8.146 151.800 C -0.036 184.554,0.336 220.836,9.178 252.600 C 10.607 257.733,12.774 264.613,13.588 266.600 C 13.768 267.040,14.227 268.300,14.608 269.400 C 14.990 270.500,15.537 271.940,15.826 272.600 C 16.114 273.260,16.812 274.921,17.376 276.290 C 19.908 282.437,24.393 291.671,27.100 296.309 C 28.035 297.912,28.800 299.305,28.800 299.404 C 28.800 299.682,31.796 304.538,34.715 308.993 C 55.240 340.314,87.594 367.672,120.600 381.618 C 121.677 382.073,125.074 383.519,126.800 384.256 C 127.570 384.585,128.560 385.019,129.000 385.221 C 130.255 385.796,144.440 390.482,146.000 390.838 C 146.770 391.013,148.480 391.449,149.800 391.807 C 164.443 395.778,177.063 397.589,194.400 398.205 C 202.282 398.485,216.747 397.967,222.400 397.202 C 224.050 396.979,226.750 396.617,228.400 396.398 C 235.091 395.511,243.938 393.737,251.400 391.786 C 252.720 391.441,254.610 390.967,255.600 390.733 C 256.590 390.499,257.580 390.169,257.800 390.000 C 258.020 389.831,258.830 389.561,259.600 389.400 C 260.370 389.239,261.180 388.969,261.400 388.800 C 261.620 388.631,262.424 388.359,263.187 388.195 C 263.950 388.032,264.850 387.757,265.187 387.584 C 265.524 387.411,267.420 386.690,269.400 385.982 C 272.584 384.844,274.700 384.003,277.400 382.800 C 277.840 382.604,279.100 382.061,280.200 381.593 C 284.256 379.867,285.062 379.499,288.000 378.027 C 291.885 376.082,295.242 374.255,298.052 372.559 C 299.291 371.812,300.407 371.200,300.532 371.200 C 300.657 371.200,301.560 370.660,302.538 370.000 C 303.516 369.340,304.414 368.800,304.533 368.800 C 304.652 368.800,305.933 367.990,307.379 367.000 C 308.825 366.010,310.104 365.200,310.221 365.200 C 310.338 365.200,310.651 365.020,310.917 364.800 C 311.183 364.581,314.370 362.180,318.000 359.466 C 321.630 356.751,325.140 354.066,325.800 353.499 C 326.460 352.932,328.440 351.239,330.200 349.738 C 335.056 345.597,346.200 334.448,349.800 330.129 C 351.560 328.017,353.426 325.820,353.946 325.245 C 360.000 318.554,371.298 301.048,377.339 288.997 C 380.436 282.820,381.176 281.239,383.048 276.800 C 383.373 276.030,383.810 275.087,384.019 274.705 C 384.229 274.323,384.406 273.783,384.414 273.505 C 384.421 273.227,384.775 272.280,385.200 271.400 C 385.625 270.520,385.979 269.496,385.986 269.124 C 385.994 268.752,386.180 268.336,386.400 268.200 C 386.620 268.064,386.800 267.676,386.800 267.337 C 386.800 266.998,387.054 266.154,387.365 265.460 C 387.676 264.767,388.319 262.850,388.793 261.200 C 389.268 259.550,389.810 257.840,389.998 257.400 C 390.697 255.759,392.487 248.678,394.798 238.400 C 395.548 235.064,396.958 225.115,397.661 218.200 C 398.242 212.485,398.245 187.818,397.666 182.400 C 396.230 168.964,394.584 159.687,391.811 149.400 C 391.455 148.080,390.984 146.280,390.765 145.400 C 390.209 143.175,386.858 133.151,386.387 132.305 C 386.174 131.923,386.000 131.411,386.000 131.166 C 386.000 130.921,385.752 130.154,385.448 129.460 C 385.144 128.767,384.504 127.210,384.026 126.000 C 383.548 124.790,382.997 123.440,382.800 123.000 C 382.604 122.560,382.056 121.300,381.582 120.200 C 378.570 113.205,372.400 101.822,366.400 92.193 C 364.713 89.485,354.751 75.917,353.507 74.634 C 353.228 74.346,352.101 73.050,351.003 71.755 C 336.034 54.106,315.370 37.310,294.873 26.132 C 289.733 23.329,278.775 18.000,278.150 18.000 C 278.043 18.000,277.201 17.663,276.278 17.251 C 275.355 16.840,272.260 15.651,269.400 14.610 C 266.540 13.570,263.840 12.575,263.400 12.401 C 261.579 11.681,258.900 10.806,257.400 10.443 C 256.520 10.230,254.810 9.759,253.600 9.397 C 247.618 7.606,238.290 5.661,227.600 3.975 C 217.386 2.364,199.977 1.683,188.000 2.425 M204.320 81.280 C 204.689 81.649,204.800 94.987,204.800 138.880 L 204.800 196.000 262.200 196.000 L 319.600 196.000 319.600 200.200 L 319.600 204.400 262.201 204.400 L 204.803 204.400 204.701 261.900 L 204.600 319.400 200.400 319.400 L 196.200 319.400 196.099 261.900 L 195.997 204.400 138.599 204.400 L 81.200 204.400 81.200 200.200 L 81.200 196.000 138.600 196.000 L 196.000 196.000 196.000 138.633 C 196.000 93.114,196.103 81.225,196.500 81.065 C 197.569 80.633,203.846 80.806,204.320 81.280 " stroke="none" fill="#04dc04" fill-rule="evenodd"></path><path id="path2" d="M190.291 1.889 C 191.001 1.977,192.261 1.979,193.091 1.892 C 193.921 1.805,193.340 1.733,191.800 1.731 C 190.260 1.729,189.581 1.800,190.291 1.889 M203.700 1.896 C 204.965 1.975,207.035 1.975,208.300 1.896 C 209.565 1.816,208.530 1.751,206.000 1.751 C 203.470 1.751,202.435 1.816,203.700 1.896 M185.905 2.283 C 186.402 2.379,187.122 2.375,187.505 2.275 C 187.887 2.175,187.480 2.096,186.600 2.101 C 185.720 2.105,185.407 2.187,185.905 2.283 M212.300 2.282 C 212.795 2.378,213.605 2.378,214.100 2.282 C 214.595 2.187,214.190 2.109,213.200 2.109 C 212.210 2.109,211.805 2.187,212.300 2.282 M176.500 3.076 C 176.885 3.176,177.515 3.176,177.900 3.076 C 178.285 2.975,177.970 2.893,177.200 2.893 C 176.430 2.893,176.115 2.975,176.500 3.076 M222.305 3.083 C 222.802 3.179,223.522 3.175,223.905 3.075 C 224.287 2.975,223.880 2.896,223.000 2.901 C 222.120 2.905,221.807 2.987,222.305 3.083 M244.400 6.800 C 245.768 7.238,246.819 7.238,245.800 6.800 C 245.360 6.611,244.640 6.462,244.200 6.468 C 243.557 6.477,243.596 6.543,244.400 6.800 M70.975 49.700 L 69.800 51.000 71.100 49.825 C 71.815 49.179,72.400 48.594,72.400 48.525 C 72.400 48.216,72.070 48.488,70.975 49.700 M329.600 49.725 C 329.600 49.794,330.185 50.379,330.900 51.025 L 332.200 52.200 331.025 50.900 C 329.930 49.688,329.600 49.416,329.600 49.725 M68.175 52.100 L 67.000 53.400 68.300 52.225 C 69.015 51.579,69.600 50.994,69.600 50.925 C 69.600 50.616,69.270 50.888,68.175 52.100 M335.183 54.900 C 336.841 56.666,337.200 56.984,337.200 56.683 C 337.200 56.619,336.345 55.764,335.300 54.783 L 333.400 53.000 335.183 54.900 M59.994 59.900 L 54.600 65.400 60.100 60.006 C 65.209 54.994,65.781 54.400,65.494 54.400 C 65.436 54.400,62.961 56.875,59.994 59.900 M345.400 65.200 C 346.706 66.520,347.865 67.600,347.975 67.600 C 348.085 67.600,347.106 66.520,345.800 65.200 C 344.494 63.880,343.335 62.800,343.225 62.800 C 343.115 62.800,344.094 63.880,345.400 65.200 M51.775 68.500 L 50.600 69.800 51.900 68.625 C 53.112 67.530,53.384 67.200,53.075 67.200 C 53.006 67.200,52.421 67.785,51.775 68.500 M200.199 81.492 L 204.000 81.629 204.000 138.791 C 204.000 170.230,204.135 196.036,204.300 196.138 C 204.465 196.240,204.510 170.466,204.400 138.862 L 204.200 81.400 200.299 81.377 L 196.398 81.354 200.199 81.492 M359.999 82.700 C 360.522 83.415,361.013 84.000,361.089 84.000 C 361.393 84.000,360.401 82.500,359.745 81.967 C 359.313 81.616,359.410 81.896,359.999 82.700 M6.649 155.415 C 6.512 155.773,6.415 156.366,6.434 156.733 C 6.453 157.100,6.627 156.869,6.821 156.220 C 7.198 154.958,7.065 154.333,6.649 155.415 M394.068 157.600 C 394.088 158.639,394.718 160.346,394.732 159.400 C 394.738 158.960,394.589 158.240,394.400 157.800 C 394.189 157.310,394.061 157.232,394.068 157.600 M395.462 164.600 C 395.596 165.480,395.772 166.275,395.853 166.367 C 396.156 166.710,395.929 164.568,395.581 163.800 C 395.329 163.242,395.293 163.485,395.462 164.600 M2.893 178.000 C 2.893 178.770,2.975 179.085,3.076 178.700 C 3.176 178.315,3.176 177.685,3.076 177.300 C 2.975 176.915,2.893 177.230,2.893 178.000 M398.109 184.000 C 398.109 184.990,398.187 185.395,398.282 184.900 C 398.378 184.405,398.378 183.595,398.282 183.100 C 398.187 182.605,398.109 183.010,398.109 184.000 M398.514 190.600 C 398.517 191.700,398.595 192.103,398.687 191.495 C 398.779 190.886,398.777 189.986,398.682 189.495 C 398.587 189.003,398.511 189.500,398.514 190.600 M1.773 200.200 C 1.773 205.480,1.830 207.585,1.899 204.877 C 1.968 202.169,1.968 197.849,1.899 195.277 C 1.829 192.705,1.772 194.920,1.773 200.200 M81.346 200.200 C 81.347 202.400,81.414 203.249,81.495 202.087 C 81.576 200.924,81.576 199.124,81.493 198.087 C 81.411 197.049,81.345 198.000,81.346 200.200 M204.185 204.500 C 204.080 204.775,204.041 230.740,204.097 262.200 L 204.200 319.400 204.400 261.700 C 204.510 229.965,204.549 204.000,204.487 204.000 C 204.426 204.000,204.289 204.225,204.185 204.500 M398.520 209.600 C 398.520 210.810,398.595 211.305,398.687 210.700 C 398.778 210.095,398.778 209.105,398.687 208.500 C 398.595 207.895,398.520 208.390,398.520 209.600 M2.101 211.800 C 2.105 212.680,2.187 212.993,2.283 212.495 C 2.379 211.998,2.375 211.278,2.275 210.895 C 2.175 210.513,2.096 210.920,2.101 211.800 M398.114 216.600 C 398.117 217.700,398.195 218.103,398.287 217.495 C 398.379 216.886,398.377 215.986,398.282 215.495 C 398.187 215.003,398.111 215.500,398.114 216.600 M2.901 222.600 C 2.905 223.480,2.987 223.793,3.083 223.295 C 3.179 222.798,3.175 222.078,3.075 221.695 C 2.975 221.313,2.896 221.720,2.901 222.600 M396.893 227.600 C 396.893 228.370,396.975 228.685,397.076 228.300 C 397.176 227.915,397.176 227.285,397.076 226.900 C 396.975 226.515,396.893 226.830,396.893 227.600 M347.775 332.900 L 346.600 334.200 347.900 333.025 C 348.615 332.379,349.200 331.794,349.200 331.725 C 349.200 331.416,348.870 331.688,347.775 332.900 M55.800 336.400 C 57.106 337.720,58.265 338.800,58.375 338.800 C 58.485 338.800,57.506 337.720,56.200 336.400 C 54.894 335.080,53.735 334.000,53.625 334.000 C 53.515 334.000,54.494 335.080,55.800 336.400 M340.992 340.100 L 337.000 344.200 341.100 340.208 C 343.355 338.012,345.200 336.167,345.200 336.108 C 345.200 335.818,344.701 336.292,340.992 340.100 M63.600 344.200 C 65.017 345.630,66.267 346.800,66.377 346.800 C 66.487 346.800,65.417 345.630,64.000 344.200 C 62.583 342.770,61.333 341.600,61.223 341.600 C 61.113 341.600,62.183 342.770,63.600 344.200 M333.200 347.400 C 332.228 348.390,331.523 349.200,331.633 349.200 C 331.743 349.200,332.628 348.390,333.600 347.400 C 334.572 346.410,335.277 345.600,335.167 345.600 C 335.057 345.600,334.172 346.410,333.200 347.400 M157.800 394.400 C 158.240 394.589,158.960 394.738,159.400 394.732 C 160.043 394.723,160.004 394.657,159.200 394.400 C 157.832 393.962,156.781 393.962,157.800 394.400 M241.400 394.400 C 240.896 394.617,240.822 394.744,241.200 394.744 C 241.530 394.744,242.160 394.589,242.600 394.400 C 243.104 394.183,243.178 394.056,242.800 394.056 C 242.470 394.056,241.840 394.211,241.400 394.400 M184.100 398.287 C 184.705 398.378,185.695 398.378,186.300 398.287 C 186.905 398.195,186.410 398.120,185.200 398.120 C 183.990 398.120,183.495 398.195,184.100 398.287 M214.500 398.287 C 215.105 398.378,216.095 398.378,216.700 398.287 C 217.305 398.195,216.810 398.120,215.600 398.120 C 214.390 398.120,213.895 398.195,214.500 398.287 M191.100 398.682 C 191.595 398.778,192.405 398.778,192.900 398.682 C 193.395 398.587,192.990 398.509,192.000 398.509 C 191.010 398.509,190.605 398.587,191.100 398.682 M207.905 398.683 C 208.402 398.779,209.122 398.775,209.505 398.675 C 209.887 398.575,209.480 398.496,208.600 398.501 C 207.720 398.505,207.407 398.587,207.905 398.683 " stroke="none" fill="#84ec84" fill-rule="evenodd"></path><path id="path3" d="M189.900 2.282 C 190.395 2.378,191.205 2.378,191.700 2.282 C 192.195 2.187,191.790 2.109,190.800 2.109 C 189.810 2.109,189.405 2.187,189.900 2.282 M207.900 2.282 C 208.395 2.378,209.205 2.378,209.700 2.282 C 210.195 2.187,209.790 2.109,208.800 2.109 C 207.810 2.109,207.405 2.187,207.900 2.282 M180.100 3.076 C 180.485 3.176,181.115 3.176,181.500 3.076 C 181.885 2.975,181.570 2.893,180.800 2.893 C 180.030 2.893,179.715 2.975,180.100 3.076 M218.300 3.082 C 218.795 3.178,219.605 3.178,220.100 3.082 C 220.595 2.987,220.190 2.909,219.200 2.909 C 218.210 2.909,217.805 2.987,218.300 3.082 M171.000 4.000 C 169.911 4.277,169.893 4.307,170.800 4.325 C 171.350 4.335,172.160 4.189,172.600 4.000 C 173.586 3.576,172.666 3.576,171.000 4.000 M227.600 3.980 C 228.599 4.320,231.082 4.532,230.767 4.251 C 230.675 4.169,229.700 3.999,228.600 3.872 C 227.251 3.716,226.926 3.751,227.600 3.980 M163.600 5.200 C 162.796 5.457,162.757 5.523,163.400 5.532 C 163.840 5.538,164.560 5.389,165.000 5.200 C 166.019 4.762,164.968 4.762,163.600 5.200 M235.000 5.200 C 235.440 5.389,236.160 5.538,236.600 5.532 C 237.243 5.523,237.204 5.457,236.400 5.200 C 235.032 4.762,233.981 4.762,235.000 5.200 M241.200 6.382 C 241.530 6.605,242.145 6.791,242.567 6.794 C 243.590 6.802,243.271 6.573,241.800 6.244 C 240.924 6.048,240.762 6.085,241.200 6.382 M71.375 49.700 L 70.200 51.000 71.500 49.825 C 72.215 49.179,72.800 48.594,72.800 48.525 C 72.800 48.216,72.470 48.488,71.375 49.700 M330.487 51.005 C 331.304 51.860,332.038 52.479,332.117 52.380 C 332.197 52.281,331.528 51.581,330.631 50.825 L 329.000 49.450 330.487 51.005 M67.775 52.900 L 66.600 54.200 67.900 53.025 C 69.112 51.930,69.384 51.600,69.075 51.600 C 69.006 51.600,68.421 52.185,67.775 52.900 M334.600 54.800 C 335.683 55.900,336.660 56.800,336.770 56.800 C 336.880 56.800,336.083 55.900,335.000 54.800 C 333.917 53.700,332.940 52.800,332.830 52.800 C 332.720 52.800,333.517 53.700,334.600 54.800 M60.594 59.700 L 55.400 65.000 60.700 59.806 C 65.623 54.981,66.181 54.400,65.894 54.400 C 65.836 54.400,63.451 56.785,60.594 59.700 M345.600 65.800 C 347.017 67.230,348.267 68.400,348.377 68.400 C 348.487 68.400,347.417 67.230,346.000 65.800 C 344.583 64.370,343.333 63.200,343.223 63.200 C 343.113 63.200,344.183 64.370,345.600 65.800 M51.375 69.300 L 50.200 70.600 51.500 69.425 C 52.712 68.330,52.984 68.000,52.675 68.000 C 52.606 68.000,52.021 68.585,51.375 69.300 M198.500 81.094 C 199.545 81.176,201.255 81.176,202.300 81.094 C 203.345 81.012,202.490 80.944,200.400 80.944 C 198.310 80.944,197.455 81.012,198.500 81.094 M196.195 138.600 C 196.195 170.280,196.242 183.181,196.300 167.269 C 196.358 151.356,196.358 125.436,196.300 109.669 C 196.242 93.901,196.195 106.920,196.195 138.600 M204.595 138.800 C 204.595 170.370,204.642 183.285,204.700 167.500 C 204.758 151.715,204.758 125.885,204.700 110.100 C 204.642 94.315,204.595 107.230,204.595 138.800 M396.893 176.000 C 396.893 176.770,396.975 177.085,397.076 176.700 C 397.176 176.315,397.176 175.685,397.076 175.300 C 396.975 174.915,396.893 175.230,396.893 176.000 M2.901 181.800 C 2.905 182.680,2.987 182.993,3.083 182.495 C 3.179 181.998,3.175 181.278,3.075 180.895 C 2.975 180.513,2.896 180.920,2.901 181.800 M2.493 184.800 C 2.493 185.570,2.575 185.885,2.676 185.500 C 2.776 185.115,2.776 184.485,2.676 184.100 C 2.575 183.715,2.493 184.030,2.493 184.800 M398.134 190.000 C 398.134 191.650,398.205 192.325,398.291 191.500 C 398.378 190.675,398.378 189.325,398.291 188.500 C 398.205 187.675,398.134 188.350,398.134 190.000 M2.142 194.200 C 2.141 196.180,2.208 197.040,2.292 196.112 C 2.376 195.184,2.377 193.564,2.295 192.512 C 2.212 191.460,2.143 192.220,2.142 194.200 M398.561 200.800 C 398.561 204.210,398.622 205.605,398.697 203.900 C 398.772 202.195,398.772 199.405,398.697 197.700 C 398.622 195.995,398.561 197.390,398.561 200.800 M319.350 200.200 C 319.351 202.620,319.416 203.558,319.496 202.285 C 319.576 201.012,319.575 199.032,319.494 197.885 C 319.414 196.738,319.349 197.780,319.350 200.200 M2.140 206.400 C 2.140 208.270,2.209 209.035,2.293 208.100 C 2.377 207.165,2.377 205.635,2.293 204.700 C 2.209 203.765,2.140 204.530,2.140 206.400 M204.499 261.700 L 204.400 319.200 200.401 319.200 L 196.403 319.200 196.299 262.000 L 196.196 204.800 196.198 262.100 L 196.200 319.400 200.307 319.514 C 203.369 319.599,204.464 319.497,204.610 319.114 C 204.718 318.831,204.759 292.860,204.701 261.400 L 204.597 204.200 204.499 261.700 M398.134 210.400 C 398.134 212.050,398.205 212.725,398.291 211.900 C 398.378 211.075,398.378 209.725,398.291 208.900 C 398.205 208.075,398.134 208.750,398.134 210.400 M2.501 215.800 C 2.505 216.680,2.587 216.993,2.683 216.495 C 2.779 215.998,2.775 215.278,2.675 214.895 C 2.575 214.513,2.496 214.920,2.501 215.800 M397.693 217.200 C 397.693 217.970,397.775 218.285,397.876 217.900 C 397.976 217.515,397.976 216.885,397.876 216.500 C 397.775 216.115,397.693 216.430,397.693 217.200 M2.901 219.000 C 2.905 219.880,2.987 220.193,3.083 219.695 C 3.179 219.198,3.175 218.478,3.075 218.095 C 2.975 217.713,2.896 218.120,2.901 219.000 M394.600 238.800 C 394.448 239.491,394.407 240.141,394.509 240.242 C 394.611 240.344,394.809 239.853,394.950 239.150 C 395.091 238.447,395.131 237.798,395.041 237.708 C 394.950 237.617,394.752 238.109,394.600 238.800 M6.244 241.800 C 6.573 243.271,6.802 243.590,6.794 242.567 C 6.791 242.145,6.605 241.530,6.382 241.200 C 6.085 240.762,6.048 240.924,6.244 241.800 M393.429 244.229 C 393.281 244.815,393.238 245.372,393.332 245.466 C 393.427 245.560,393.624 245.158,393.771 244.571 C 393.919 243.985,393.962 243.428,393.868 243.334 C 393.773 243.240,393.576 243.642,393.429 244.229 M350.175 329.700 L 349.000 331.000 350.300 329.825 C 351.015 329.179,351.600 328.594,351.600 328.525 C 351.600 328.216,351.270 328.488,350.175 329.700 M50.000 329.725 C 50.000 329.794,50.585 330.379,51.300 331.025 L 52.600 332.200 51.425 330.900 C 50.330 329.688,50.000 329.416,50.000 329.725 M54.783 334.900 C 55.764 335.945,56.619 336.800,56.683 336.800 C 56.984 336.800,56.666 336.441,54.900 334.783 L 53.000 333.000 54.783 334.900 M341.392 339.300 L 337.400 343.400 341.500 339.408 C 343.755 337.212,345.600 335.367,345.600 335.308 C 345.600 335.018,345.101 335.492,341.392 339.300 M64.200 344.400 C 65.506 345.720,66.665 346.800,66.775 346.800 C 66.885 346.800,65.906 345.720,64.600 344.400 C 63.294 343.080,62.135 342.000,62.025 342.000 C 61.915 342.000,62.894 343.080,64.200 344.400 M69.200 349.000 C 69.946 349.770,70.647 350.400,70.757 350.400 C 70.867 350.400,70.346 349.770,69.600 349.000 C 68.854 348.230,68.153 347.600,68.043 347.600 C 67.933 347.600,68.454 348.230,69.200 349.000 M329.375 350.500 L 328.200 351.800 329.500 350.625 C 330.215 349.979,330.800 349.394,330.800 349.325 C 330.800 349.016,330.470 349.288,329.375 350.500 M80.000 357.725 C 80.000 357.824,80.661 358.409,81.468 359.025 C 82.276 359.641,82.811 359.941,82.656 359.691 C 82.340 359.179,80.000 357.447,80.000 357.725 M318.400 359.260 C 317.630 359.935,317.362 360.305,317.804 360.081 C 318.535 359.711,320.347 357.978,319.962 358.016 C 319.873 358.025,319.170 358.585,318.400 359.260 M84.800 361.346 C 84.800 361.456,85.340 361.930,86.000 362.400 C 86.660 362.870,87.200 363.164,87.200 363.054 C 87.200 362.944,86.660 362.470,86.000 362.000 C 85.340 361.530,84.800 361.236,84.800 361.346 M145.633 390.944 C 145.725 391.023,146.340 391.208,147.000 391.356 C 147.876 391.552,148.038 391.515,147.600 391.218 C 147.060 390.853,145.232 390.598,145.633 390.944 M167.600 396.000 C 168.968 396.438,170.019 396.438,169.000 396.000 C 168.560 395.811,167.840 395.662,167.400 395.668 C 166.757 395.677,166.796 395.743,167.600 396.000 M175.700 397.076 C 176.085 397.176,176.715 397.176,177.100 397.076 C 177.485 396.975,177.170 396.893,176.400 396.893 C 175.630 396.893,175.315 396.975,175.700 397.076 M223.905 397.083 C 224.402 397.179,225.122 397.175,225.505 397.075 C 225.887 396.975,225.480 396.896,224.600 396.901 C 223.720 396.905,223.407 396.987,223.905 397.083 M215.700 397.876 C 216.085 397.976,216.715 397.976,217.100 397.876 C 217.485 397.775,217.170 397.693,216.400 397.693 C 215.630 397.693,215.315 397.775,215.700 397.876 M189.891 398.289 C 190.601 398.377,191.861 398.379,192.691 398.292 C 193.521 398.205,192.940 398.133,191.400 398.131 C 189.860 398.129,189.181 398.200,189.891 398.289 M207.900 398.289 C 208.615 398.378,209.785 398.378,210.500 398.289 C 211.215 398.201,210.630 398.128,209.200 398.128 C 207.770 398.128,207.185 398.201,207.900 398.289 M197.318 398.698 C 199.033 398.773,201.733 398.772,203.318 398.697 C 204.903 398.621,203.500 398.559,200.200 398.560 C 196.900 398.561,195.603 398.622,197.318 398.698 " stroke="none" fill="#59e959" fill-rule="evenodd"></path><path id="path4" d="M196.100 1.894 C 197.145 1.976,198.855 1.976,199.900 1.894 C 200.945 1.812,200.090 1.744,198.000 1.744 C 195.910 1.744,195.055 1.812,196.100 1.894 M338.600 58.400 C 339.459 59.280,340.252 60.000,340.362 60.000 C 340.472 60.000,339.859 59.280,339.000 58.400 C 338.141 57.520,337.348 56.800,337.238 56.800 C 337.128 56.800,337.741 57.520,338.600 58.400 M398.493 193.600 C 398.493 194.370,398.575 194.685,398.676 194.300 C 398.776 193.915,398.776 193.285,398.676 192.900 C 398.575 192.515,398.493 192.830,398.493 193.600 M110.100 196.300 C 125.885 196.358,151.715 196.358,167.500 196.300 C 183.285 196.242,170.370 196.195,138.800 196.195 C 107.230 196.195,94.315 196.242,110.100 196.300 M233.300 196.300 C 249.085 196.358,274.915 196.358,290.700 196.300 C 306.485 196.242,293.570 196.195,262.000 196.195 C 230.430 196.195,217.515 196.242,233.300 196.300 M110.100 204.300 C 125.885 204.358,151.715 204.358,167.500 204.300 C 183.285 204.242,170.370 204.195,138.800 204.195 C 107.230 204.195,94.315 204.242,110.100 204.300 M233.300 204.300 C 249.085 204.358,274.915 204.358,290.700 204.300 C 306.485 204.242,293.570 204.195,262.000 204.195 C 230.430 204.195,217.515 204.242,233.300 204.300 M59.600 340.200 C 60.346 340.970,61.047 341.600,61.157 341.600 C 61.267 341.600,60.746 340.970,60.000 340.200 C 59.254 339.430,58.553 338.800,58.443 338.800 C 58.333 338.800,58.854 339.430,59.600 340.200 " stroke="none" fill="#7cec7c" fill-rule="evenodd"></path></g></svg>